<svg class="icon icon-whatsapp" viewBox="0 0 20 20"><path fill="currentColor" d="M10.04 2C5.58 2 2 5.58 2 10.04c0 1.41.37 2.78 1.07 3.99L2 18l4.05-1.06A8.04 8.04 0 0 0 10.04 18C14.5 18 18 14.42 18 9.96 18 5.58 14.5 2 10.04 2m0 14.54a6.56 6.56 0 0 1-3.35-.92l-.24-.14-2.48.65.66-2.42-.16-.25a6.52 6.52 0 0 1-1.01-3.5c0-3.63 2.95-6.58 6.58-6.58a6.58 6.58 0 0 1 6.58 6.58c0 3.63-2.95 6.58-6.58 6.58m3.61-4.93c-.2-.1-1.17-.58-1.35-.64-.18-.07-.31-.1-.44.1-.13.2-.51.64-.63.78-.11.13-.23.15-.43.05-.2-.1-.84-.31-1.6-.99-.59-.53-.99-1.18-1.1-1.38-.12-.2-.01-.31.09-.41.09-.09.2-.23.3-.35.1-.12.13-.2.2-.33.06-.13.03-.25-.02-.35-.05-.1-.44-1.06-.6-1.45-.16-.38-.32-.33-.44-.34h-.38c-.13 0-.34.05-.52.25-.18.2-.68.66-.68 1.62s.7 1.88.8 2.01c.1.13 1.37 2.09 3.32 2.93.46.2.83.32 1.11.41.47.15.89.13 1.23.08.37-.06 1.17-.48 1.33-.94.17-.46.17-.86.12-.94-.05-.08-.18-.13-.38-.23"/></svg>
